<?xml version="1.0" encoding="utf-8"?>
<svg viewBox="0 0 500 500" xmlns="http://www.w3.org/2000/svg">
  <path d="M 501.382 328.774 L 501.382 403.778 C 501.382 455.472 459.33 497.524 407.636 497.524 L 145.128 497.524 C 93.435 497.524 51.382 455.472 51.382 403.778 L 51.382 328.774 C 51.382 297.758 76.616 272.524 107.632 272.524 L 163.882 272.524 C 184.56 272.524 201.378 289.343 201.378 310.02 C 201.378 330.709 218.197 347.528 238.875 347.528 L 313.878 347.528 C 334.556 347.528 351.375 330.709 351.375 310.02 C 351.375 289.343 368.205 272.524 388.882 272.524 L 445.132 272.524 C 476.148 272.524 501.382 297.758 501.382 328.774 Z M 214.631 146.772 L 257.628 103.774 L 257.628 235.028 C 257.628 245.389 266.01 253.77 276.382 253.77 C 286.743 253.77 295.125 245.389 295.125 235.028 L 295.125 103.774 L 338.122 146.772 C 341.778 150.428 346.582 152.262 351.375 152.262 C 356.178 152.262 360.982 150.428 364.638 146.772 C 371.973 139.437 371.973 127.59 364.638 120.255 L 302.887 58.515 C 295.653 51.27 286.147 47.637 276.641 47.58 L 276.382 47.524 L 276.112 47.58 C 266.595 47.637 257.1 51.27 249.866 58.515 L 188.126 120.255 C 180.791 127.59 180.791 139.437 188.126 146.772 C 195.45 154.095 207.307 154.095 214.631 146.772 Z" transform="matrix(1, 0, 0, 1, -28.085022, -22.391533)" style="fill: rgb(255, 255, 255);"/>
</svg>